<svg width="40" height="40" viewBox="0 0 40 40" fill="none" xmlns="http://www.w3.org/2000/svg">
<g clip-path="url(#clip0_136_16)">
<path fill-rule="evenodd" clip-rule="evenodd" d="M34.8875 36.354H5.11346L3.80346 10.094H8.69346C8.60546 10.668 8.54546 11.254 8.54546 11.854V13.374H11.8195V11.854C11.8224 11.2618 11.8894 10.6717 12.0195 10.094H27.9835C28.1135 10.6717 28.1805 11.2618 28.1835 11.854V13.374H31.4555V11.854C31.4555 11.254 31.3955 10.67 31.3075 10.094H36.1975L34.8875 36.354ZM19.9995 3.64601C22.6075 3.64601 24.9075 4.89801 26.4055 6.81001H13.5935C15.0935 4.89801 17.3935 3.64601 19.9995 3.64601V3.64601ZM30.2795 6.81001C28.4095 3.00001 24.5115 0.364014 19.9995 0.364014C15.4875 0.364014 11.5895 3.00001 9.72346 6.81001H0.363464L1.99946 39.636H37.9995L39.6355 6.80801H30.2755L30.2795 6.81001Z" fill="#4A4A4A"/>
</g>
<defs>
<clipPath id="clip0_136_16">
<rect width="40" height="40" fill="white" transform="translate(-0.000549316)"/>
</clipPath>
</defs>
</svg>
