<svg width="40" height="40" viewBox="0 0 40 40" fill="none" xmlns="http://www.w3.org/2000/svg">
<g clip-path="url(#clip0_136_18)">
<path fill-rule="evenodd" clip-rule="evenodd" d="M36.4271 12.194V13.166C36.4271 18.036 30.2889 26.38 20.0016 35.498C9.71069 26.378 3.57614 18.034 3.57614 13.166V12.194C3.57614 7.45401 7.03069 3.60401 11.2798 3.60401C13.8689 3.60401 16.2671 5.04401 17.6943 7.45401L19.9998 11.348L22.3089 7.45601C23.0003 6.27566 23.9497 5.30482 25.0703 4.63225C26.1909 3.95968 27.4469 3.60685 28.7234 3.60601C32.9707 3.60601 36.4271 7.45801 36.4271 12.196V12.194ZM28.7234 0.364014C25.2252 0.364014 21.9816 2.26401 19.9998 5.46401C17.9998 2.26401 14.7743 0.364014 11.2761 0.364014C5.4216 0.364014 0.657959 5.67001 0.657959 12.194V13.166C0.657959 19.418 7.29069 28.61 19.3398 39.046L19.898 39.536L19.998 39.636L20.0961 39.536C20.1598 39.472 20.3543 39.304 20.6543 39.046C32.7016 28.606 39.338 19.416 39.338 13.166V12.194C39.338 5.67401 34.5743 0.364014 28.7198 0.364014" fill="#4A4A4A"/>
</g>
<defs>
<clipPath id="clip0_136_18">
<rect width="40" height="40" fill="white"/>
</clipPath>
</defs>
</svg>
