<svg width="40" height="38" viewBox="0 0 40 38" fill="none" xmlns="http://www.w3.org/2000/svg">
<path d="M19.9703 0.843764C19.8024 0.849555 19.6406 0.908049 19.5078 1.01095L1.10783 15.3688C0.940411 15.4993 0.831706 15.691 0.805626 15.9017C0.779547 16.1124 0.83823 16.3248 0.968767 16.4922C1.0993 16.6596 1.291 16.7683 1.50168 16.7944C1.71237 16.8205 1.92479 16.7618 2.0922 16.6313L3.20002 15.7672V36.8C3.20004 37.0122 3.28433 37.2157 3.43435 37.3657C3.58438 37.5157 3.78785 37.6 4.00002 37.6H15.0656C15.152 37.6143 15.2402 37.6143 15.3266 37.6H24.6656C24.752 37.6143 24.8402 37.6143 24.9266 37.6H36C36.2122 37.6 36.4157 37.5157 36.5657 37.3657C36.7157 37.2157 36.8 37.0122 36.8 36.8V15.7672L37.9078 16.6313C37.9907 16.6959 38.0855 16.7436 38.1869 16.7716C38.2882 16.7996 38.394 16.8074 38.4984 16.7944C38.6027 16.7815 38.7035 16.7482 38.7949 16.6963C38.8863 16.6445 38.9667 16.5751 39.0313 16.4922C39.096 16.4093 39.1436 16.3145 39.1716 16.2132C39.1996 16.1119 39.2074 16.006 39.1945 15.9017C39.1815 15.7974 39.1482 15.6966 39.0963 15.6052C39.0445 15.5137 38.9751 15.4334 38.8922 15.3688L32.8 10.6156V4.80001H28V6.86876L20.4922 1.01095C20.3434 0.895528 20.1585 0.836324 19.9703 0.843764ZM20 2.65783L35.2 14.5188V36H25.6V20.8H14.4V36H4.80002V14.5188L20 2.65783ZM29.6 6.40001H31.2V9.3672L29.6 8.1172V6.40001ZM16 22.4H24V36H16V22.4Z" fill="black"/>
</svg>
