<svg width="79" height="32" viewBox="0 0 79 32" fill="none" xmlns="http://www.w3.org/2000/svg">
<path d="M2.58465 0.479394L13.8057 17.807L25.1166 0.476664L26.7936 0.47646L14.5795 19.3119L14.5781 31.008L13.0731 31.0081L13.0745 19.2261L0.907651 0.479597L2.58465 0.479394ZM51.6582 31.0035L35.9651 14.5794C34.7326 13.2608 33.7437 12.1286 32.9985 11.1827C32.2533 10.2368 31.7087 9.3912 31.3648 8.64591C31.0496 7.90061 30.892 7.16963 30.8921 6.45297C30.8922 5.3063 31.2076 4.25993 31.8384 3.31385C32.4979 2.3391 33.3723 1.565 34.4617 0.991533C35.5798 0.389396 36.8268 0.0882445 38.2028 0.0880777C39.4928 0.0879214 40.6394 0.345783 41.6427 0.861661C42.646 1.34887 43.4199 2.02245 43.9645 2.88238C44.5377 3.71365 44.8243 4.67395 44.8241 5.76328C44.824 6.96728 44.4512 8.08532 43.7058 9.11742C42.9603 10.1208 41.9855 11.067 40.7814 11.9558C39.606 12.8446 38.3446 13.7477 36.9971 14.6652C35.7644 15.4967 34.6033 16.3569 33.5138 17.2457C32.4244 18.1345 31.5499 19.0949 30.8905 20.127C30.2597 21.1304 29.9442 22.2914 29.9441 23.6101C29.9439 25.1008 30.3594 26.3334 31.1907 27.3079C32.0219 28.2538 33.0681 28.9704 34.3294 29.4576C35.5907 29.9447 36.852 30.1883 38.1133 30.1881C39.8333 30.1879 41.3814 29.815 42.7575 29.0695C44.1622 28.2954 45.352 27.2632 46.3268 25.9731C47.3303 24.6543 48.1045 23.1779 48.6493 21.5438C49.1942 19.8811 49.4667 18.1611 49.4669 16.3837L50.7999 16.3836C50.7997 18.3042 50.4985 20.1676 49.8963 21.9737C49.2941 23.7511 48.4196 25.3565 47.2727 26.79C46.1259 28.2235 44.7641 29.356 43.1873 30.1875C41.6392 31.019 39.8905 31.4349 37.9412 31.4351C36.3359 31.4353 34.8022 31.1345 33.3403 30.5327C31.907 29.9022 30.7318 28.9993 29.8146 27.8241C28.9261 26.6202 28.4819 25.1869 28.4821 23.5243C28.4823 22.0336 28.8408 20.7292 29.5576 19.6111C30.2744 18.4644 31.2205 17.4323 32.3959 16.5148C33.5713 15.5686 34.8328 14.6368 36.1802 13.7193C37.6423 12.7445 38.9181 11.8413 40.0075 11.0099C41.097 10.1784 41.9427 9.34696 42.5448 8.51556C43.1469 7.68415 43.448 6.79544 43.4481 5.84944C43.4483 4.55944 42.9467 3.49884 41.9435 2.66763C40.9403 1.80775 39.6933 1.3779 38.2026 1.37808C37.0846 1.37821 36.0813 1.60767 35.1926 2.06644C34.3038 2.52522 33.6014 3.14164 33.0854 3.9157C32.5693 4.68976 32.3112 5.53546 32.3111 6.45279C32.311 6.96879 32.4256 7.52778 32.6549 8.12975C32.8841 8.70306 33.3284 9.43401 33.9876 10.3226C34.6755 11.2112 35.6644 12.3291 36.9542 13.6762L53.6362 31.0032L51.6582 31.0035ZM75.8081 4.98552C75.2348 4.38359 74.6472 3.86766 74.0452 3.43774C73.4433 3.00781 72.7983 2.66389 72.1104 2.40597C71.4224 2.14805 70.6914 1.96181 69.9174 1.84724C69.1434 1.704 68.2978 1.63243 67.3804 1.63254C64.1411 1.63294 61.7904 2.24955 60.3282 3.4824C58.8661 4.71524 58.1349 6.36367 58.1347 8.42767C58.1345 9.83233 58.4497 10.936 59.0803 11.7386C59.7109 12.5411 60.7141 13.186 62.0901 13.6732C63.466 14.1317 65.2433 14.5901 67.4219 15.0485C69.6579 15.5069 71.5928 16.037 73.2267 16.6388C74.8607 17.2406 76.1219 18.0575 77.0104 19.0894C77.899 20.1213 78.3432 21.5402 78.343 23.3462C78.3428 24.6362 78.0847 25.7829 77.5686 26.7863C77.0811 27.761 76.3644 28.5781 75.4183 29.2376C74.4722 29.897 73.3255 30.3988 71.9781 30.743C70.6594 31.0585 69.1831 31.2163 67.5491 31.2165C65.9151 31.2167 64.3957 31.0592 62.9911 30.7441C61.5865 30.4003 60.2679 29.8844 59.0353 29.1966C57.8027 28.5087 56.6418 27.6345 55.5526 26.574L56.4557 25.4559C57.1436 26.2011 57.8889 26.8604 58.6915 27.4336C59.5228 27.9782 60.397 28.4367 61.3143 28.8093C62.2603 29.1818 63.2493 29.4684 64.2812 29.6689C65.3419 29.8408 66.4455 29.9267 67.5922 29.9265C70.4589 29.9262 72.7093 29.3956 74.3434 28.3347C76.0062 27.2452 76.8377 25.6541 76.8379 23.5614C76.8381 22.0994 76.4799 20.9384 75.7633 20.0785C75.0468 19.19 73.9575 18.4734 72.4956 17.9289C71.0336 17.3558 69.1704 16.84 66.9058 16.3816C64.6985 15.9232 62.8209 15.4218 61.2729 14.8773C59.7537 14.3328 58.5927 13.5733 57.7902 12.5987C57.0163 11.6241 56.6295 10.3055 56.6296 8.64285C56.6299 6.83685 57.0744 5.31746 57.9632 4.08468C58.852 2.82324 60.0991 1.87709 61.7045 1.24623C63.3099 0.586703 65.1876 0.256808 67.3376 0.256548C68.6563 0.256388 69.8603 0.385242 70.9496 0.643111C72.0389 0.900979 73.0422 1.28786 73.9594 1.80375C74.9054 2.31963 75.794 3.00752 76.6252 3.86742L75.8081 4.98552Z" fill="black"/>
</svg>
